<?xml version="1.0" encoding="utf-8"?><svg xmlns="http://www.w3.org/2000/svg" xmlns:xlink="http://www.w3.org/1999/xlink"><symbol viewBox="-10 -10 532 532" id="china" xmlns="http://www.w3.org/2000/svg"><path fill="#d80027" d="M0 85.331h512v341.337H0z"/><path d="M178.923 189.567l14.656 45.107h47.429l-38.371 27.878 14.657 45.109-38.371-27.879-38.371 27.879 14.656-45.109-38.371-27.878h47.429zM271.3 339.593l-14.39-10.455-14.388 10.454 5.495-16.914-14.389-10.455h17.786l5.496-16.916 5.498 16.916h17.785l-14.389 10.454zm37.537-51.666h-17.785l-5.496 16.914-5.496-16.913-17.787-.001 14.391-10.455-5.498-16.915 14.39 10.453 14.389-10.453-5.496 16.915zm0-63.864l-14.388 10.455 5.495 16.914-14.388-10.453-14.39 10.455 5.498-16.917-14.391-10.452 17.788-.002 5.495-16.916 5.496 16.916zM271.3 172.397l-5.495 16.916 14.388 10.453-17.785.001-5.498 16.917-5.496-16.918-17.785.002 14.389-10.456-5.496-16.916 14.388 10.455z" fill="#ffda44"/></symbol><symbol viewBox="-10 -10 532 532" id="czech-republic" xmlns="http://www.w3.org/2000/svg"><path fill="#0052b4" d="M0 85.337h512v341.326H0z"/><path fill="#d80027" d="M512 256v170.663H0L215.185 256z"/><path fill="#f0f0f0" d="M512 85.337V256H215.185L0 85.337z"/></symbol><symbol viewBox="-10 -10 532 532" id="france" xmlns="http://www.w3.org/2000/svg"><path fill="#f0f0f0" d="M0 85.331h512v341.337H0z"/><path fill="#0052b4" d="M0 85.331h170.663v341.337H0z"/><path fill="#d80027" d="M341.337 85.331H512v341.337H341.337z"/></symbol><symbol viewBox="-10 -10 532 532" id="germany" xmlns="http://www.w3.org/2000/svg"><path fill="#d80027" d="M0 85.331h512v341.337H0z"/><path d="M0 85.331h512v113.775H0z"/><path fill="#ffda44" d="M0 312.882h512v113.775H0z"/></symbol><symbol viewBox="-10 -10 532 532" id="japan" xmlns="http://www.w3.org/2000/svg"><path fill="#f0f0f0" d="M0 85.331h512v341.337H0z"/><circle cx="256" cy="255.994" r="96" fill="#d80027"/></symbol><symbol viewBox="-10 -10 532 532" id="norway" xmlns="http://www.w3.org/2000/svg"><path fill="#d80027" d="M0 85.334h512v341.337H0z"/><path fill="#f0f0f0" d="M512 295.883H202.195v130.783h-79.76V295.883H0v-79.772h122.435V85.329h79.76v130.782H512v61.218z"/><path fill="#2e52b2" d="M512 234.666v42.663H183.652v149.337h-42.674V277.329H0v-42.663h140.978V85.329h42.674v149.337z"/></symbol><symbol viewBox="-10 -10 532 532" id="sweden" xmlns="http://www.w3.org/2000/svg"><path fill="#0052b4" d="M0 85.333h512V426.67H0z"/><path fill="#ffda44" d="M192 85.33h-64v138.666H0v64h128v138.666h64V287.996h320v-64H192z"/></symbol><symbol viewBox="-10 -10 532 532" id="uk" xmlns="http://www.w3.org/2000/svg"><path fill="#f0f0f0" d="M0 85.333h512V426.67H0z"/><path fill="#d80027" d="M288 85.33h-64v138.666H0v64h224v138.666h64V287.996h224v-64H288z"/><path d="M393.785 315.358L512 381.034v-65.676zm-82.133 0L512 426.662v-31.474l-143.693-79.83zm146.982 111.304l-146.982-81.664v81.664z" fill="#0052b4"/><path fill="#f0f0f0" d="M311.652 315.358L512 426.662v-31.474l-143.693-79.83z"/><path fill="#d80027" d="M311.652 315.358L512 426.662v-31.474l-143.693-79.83z"/><path d="M90.341 315.356L0 365.546v-50.19zm110.007 14.154v97.151H25.491z" fill="#0052b4"/><path fill="#d80027" d="M143.693 315.358L0 395.188v31.474l200.348-111.304z"/><path d="M118.215 196.634L0 130.958v65.676zm82.133 0L0 85.33v31.474l143.693 79.83zM53.366 85.33l146.982 81.664V85.33z" fill="#0052b4"/><path fill="#f0f0f0" d="M200.348 196.634L0 85.33v31.474l143.693 79.83z"/><path fill="#d80027" d="M200.348 196.634L0 85.33v31.474l143.693 79.83z"/><path d="M421.659 196.636L512 146.446v50.19zm-110.007-14.154V85.331h174.857z" fill="#0052b4"/><path fill="#d80027" d="M368.307 196.634L512 116.804V85.33L311.652 196.634z"/></symbol></svg>